<?xml version="1.0" encoding="UTF-8" standalone="no"?>
<!DOCTYPE svg PUBLIC "-//W3C//DTD SVG 1.1//EN" "http://www.w3.org/Graphics/SVG/1.1/DTD/svg11.dtd">
<svg width="100%" height="100%" viewBox="0 0 512 512" version="1.1" xmlns="http://www.w3.org/2000/svg" xmlns:xlink="http://www.w3.org/1999/xlink" xml:space="preserve" xmlns:serif="http://www.serif.com/" style="fill-rule:evenodd;clip-rule:evenodd;stroke-linejoin:round;stroke-miterlimit:2;">
    <g transform="matrix(1.23331,0,0,1.23331,-37.5816,-19.9151)">
        <path d="M384.257,67.719L268.313,378.613L375.022,333.467L384.257,67.719Z" style="fill:url(#_Linear1);"/>
    </g>
    <path d="M101.139,280.54L75.675,258.481L211.077,204.067L424.936,391.352L293.33,447.032L261.13,419.137L255.74,401.553C256.892,399.718 257.976,397.84 258.989,395.924C258.989,395.925 277.732,391.612 277.732,391.612C282.256,390.571 285.831,387.109 287.015,382.62C291.855,364.28 291.855,344.998 287.015,326.658C285.831,322.169 282.256,318.707 277.732,317.666L258.989,313.353C257.976,311.438 256.892,309.56 255.74,307.724C255.74,307.725 261.376,289.337 261.376,289.337C262.737,284.898 261.526,280.071 258.231,276.801C244.767,263.44 228.069,253.799 209.766,248.82C205.286,247.601 200.5,248.966 197.337,252.363L184.23,266.439C182.065,266.359 179.897,266.359 177.731,266.439C177.732,266.439 164.625,252.363 164.625,252.363C161.462,248.966 156.676,247.601 152.196,248.82C133.893,253.799 117.195,263.44 103.732,276.801C102.627,277.897 101.757,279.168 101.139,280.54Z" style="fill:url(#_Linear2);"/>
    <g transform="matrix(1.06808,-0.616654,0.616654,1.06808,-193.11,143.819)">
        <path d="M197.318,223.523L201.903,243.449C206.034,245.262 209.952,247.524 213.587,250.195L233.136,244.202C242.735,253.874 249.661,265.871 253.238,279.019L238.273,292.953C238.769,297.437 238.769,301.961 238.273,306.444L253.238,320.378C249.661,333.527 242.735,345.523 233.136,355.195L213.587,349.203C209.952,351.873 206.034,354.135 201.903,355.948L197.318,375.874C184.143,379.351 170.291,379.351 157.115,375.874L152.53,355.948C148.4,354.135 144.482,351.873 140.847,349.203L121.297,355.195C111.699,345.523 104.772,333.527 101.196,320.378L116.16,306.444C115.665,301.961 115.665,297.437 116.16,292.953L101.196,279.019C104.772,265.871 111.699,253.874 121.297,244.202L140.847,250.195C144.482,247.524 148.4,245.262 152.53,243.449L157.115,223.523C170.291,220.046 184.143,220.046 197.318,223.523ZM177.217,272.546C192.203,272.546 204.37,284.713 204.37,299.699C204.37,314.685 192.203,326.852 177.217,326.852C162.23,326.852 150.064,314.685 150.064,299.699C150.064,284.713 162.23,272.546 177.217,272.546Z" style="fill:url(#_Linear3);"/>
    </g>
    <defs>
        <linearGradient id="_Linear1" x1="0" y1="0" x2="1" y2="0" gradientUnits="userSpaceOnUse" gradientTransform="matrix(76.6198,0,0,265.747,307.637,200.593)"><stop offset="0" style="stop-color:rgb(236,0,0);stop-opacity:1"/><stop offset="1" style="stop-color:rgb(189,0,0);stop-opacity:1"/></linearGradient>
        <linearGradient id="_Linear2" x1="0" y1="0" x2="1" y2="0" gradientUnits="userSpaceOnUse" gradientTransform="matrix(-0.0175324,197.002,-137.045,-0.0121965,201.619,181.611)"><stop offset="0" style="stop-color:rgb(189,0,0);stop-opacity:1"/><stop offset="1" style="stop-color:rgb(236,0,0);stop-opacity:1"/></linearGradient>
        <linearGradient id="_Linear3" x1="0" y1="0" x2="1" y2="0" gradientUnits="userSpaceOnUse" gradientTransform="matrix(-76.0209,131.672,-131.672,-76.0209,215.227,233.863)"><stop offset="0" style="stop-color:rgb(0,219,211);stop-opacity:1"/><stop offset="1" style="stop-color:rgb(0,219,211);stop-opacity:1"/></linearGradient>
    </defs>
</svg>
